# Blender v2.81 (sub 16) OBJ File: ''
# www.blender.org
mtllib SimpleCursor.mtl
o Cube_Cube.001
v -0.937500 0.062500 0.062500
v -0.937500 0.062500 -0.062500
v 0.937500 0.062500 0.062500
v -0.937500 -0.062500 0.062500
v -0.937500 -0.062500 -0.062500
v 0.937500 -0.062500 0.062500
v 0.937500 -0.062500 -0.062500
v 0.937500 0.062500 -0.062500
v -0.062500 -0.937500 0.062500
v -0.062500 -0.937500 -0.062500
v -0.062500 0.937500 0.062500
v 0.062500 -0.937500 0.062500
v 0.062500 -0.937500 -0.062500
v 0.062500 0.937500 0.062500
v 0.062500 0.937500 -0.062500
v -0.062500 0.937500 -0.062500
v -0.062500 -0.062500 1.000000
v -0.062500 -0.062500 -1.000000
v -0.062500 0.062500 1.000000
v 0.062500 -0.062500 1.000000
v -0.062500 -0.062500 1.250000
v -0.062500 0.062500 1.250000
v 0.062500 -0.062500 1.250000
v 0.062500 0.062500 1.250000
v 0.062500 0.062500 1.000000
v 0.062500 0.062500 -1.000000
v -0.062500 0.062500 -1.000000
v 0.062500 -0.062500 -1.000000
v 0.093750 0.093750 -1.000000
v -0.093750 0.093750 -1.000000
v 0.093750 -0.093750 -1.000000
v 0.000000 0.000000 -1.500000
v -0.093750 -0.093750 -1.000000
v 0.375000 0.375000 -0.375000
v 0.375000 -0.375000 -0.375000
v 0.375000 0.375000 0.375000
v 0.375000 -0.375000 0.375000
v -0.375000 0.375000 -0.375000
v -0.375000 -0.375000 -0.375000
v -0.375000 0.375000 0.375000
v -0.375000 -0.375000 0.375000
v 0.062500 -0.062500 0.375000
v 0.062500 -0.062500 -0.375000
v 0.062500 0.062500 0.375000
v 0.062500 0.062500 -0.375000
v -0.062500 -0.062500 0.375000
v -0.062500 -0.062500 -0.375000
v -0.062500 0.062500 -0.375000
v -0.062500 0.062500 0.375000
v 0.062500 0.375000 0.062500
v 0.062500 -0.375000 0.062500
v -0.062500 -0.375000 0.062500
v -0.062500 0.375000 0.062500
v -0.062500 -0.375000 -0.062500
v -0.062500 0.375000 -0.062500
v 0.062500 -0.375000 -0.062500
v 0.062500 0.375000 -0.062500
v -0.375000 -0.062500 0.062500
v 0.375000 -0.062500 0.062500
v -0.375000 0.062500 0.062500
v 0.375000 0.062500 0.062500
v -0.375000 0.062500 -0.062500
v 0.375000 0.062500 -0.062500
v -0.375000 -0.062500 -0.062500
v 0.375000 -0.062500 -0.062500
vt 0.125000 0.500000
vt 0.375000 0.500000
vt 0.375000 0.750000
vt 0.125000 0.750000
vt 0.375000 0.000000
vt 0.450000 0.000000
vt 0.450000 0.250000
vt 0.375000 0.250000
vt 0.450000 0.750000
vt 0.450000 1.000000
vt 0.375000 1.000000
vt 0.450000 0.500000
vt 0.625000 0.500000
vt 0.875000 0.500000
vt 0.875000 0.750000
vt 0.625000 0.750000
vt 0.125000 0.500000
vt 0.375000 0.500000
vt 0.375000 0.750000
vt 0.125000 0.750000
vt 0.375000 0.000000
vt 0.450000 0.000000
vt 0.450000 0.250000
vt 0.375000 0.250000
vt 0.450000 0.750000
vt 0.450000 1.000000
vt 0.375000 1.000000
vt 0.450000 0.500000
vt 0.625000 0.500000
vt 0.875000 0.500000
vt 0.875000 0.750000
vt 0.625000 0.750000
vt 0.125000 0.500000
vt 0.375000 0.500000
vt 0.375000 0.578125
vt 0.125000 0.578125
vt 0.375000 0.000000
vt 0.625000 0.000000
vt 0.625000 0.078125
vt 0.375000 0.078125
vt 0.375000 0.000000
vt 0.625000 0.000000
vt 0.125000 0.750000
vt 0.375000 0.750000
vt 0.375000 0.750000
vt 0.125000 0.750000
vt 0.625000 0.750000
vt 0.625000 1.000000
vt 0.375000 1.000000
vt 0.625000 0.750000
vt 0.875000 0.750000
vt 0.875000 0.750000
vt 0.625000 0.500000
vt 0.875000 0.500000
vt 0.875000 0.578125
vt 0.625000 0.578125
vt 0.625000 0.500000
vt 0.875000 0.500000
vt 0.375000 0.500000
vt 0.875000 0.500000
vt 0.625000 0.500000
vt 0.125000 0.500000
vt 0.375000 0.500000
vt 0.375000 0.250000
vt 0.625000 0.250000
vt 0.375000 0.250000
vt 0.375000 0.250000
vt 0.625000 0.250000
vt 0.375000 0.000000
vt 0.625000 0.000000
vt 0.625000 0.250000
vt 0.520833 0.145833
vt 0.520833 0.104167
vt 0.479167 0.104167
vt 0.375000 0.250000
vt 0.625000 0.250000
vt 0.520833 0.354167
vt 0.479167 0.354167
vt 0.479167 0.395833
vt 0.375000 0.500000
vt 0.375000 0.500000
vt 0.625000 0.500000
vt 0.625000 0.750000
vt 0.520833 0.645833
vt 0.520833 0.604167
vt 0.479167 0.604167
vt 0.375000 0.750000
vt 0.625000 0.750000
vt 0.520833 0.854167
vt 0.479167 0.854167
vt 0.479167 0.895833
vt 0.375000 1.000000
vt 0.125000 0.500000
vt 0.375000 0.500000
vt 0.270833 0.604167
vt 0.229167 0.604167
vt 0.229167 0.645833
vt 0.125000 0.750000
vt 0.625000 0.500000
vt 0.875000 0.500000
vt 0.770833 0.604167
vt 0.729167 0.604167
vt 0.729167 0.645833
vt 0.625000 0.750000
vt 0.375000 0.171875
vt 0.625000 0.171875
vt 0.625000 0.671875
vt 0.875000 0.671875
vt 0.125000 0.671875
vt 0.375000 0.671875
vt 0.520833 0.895833
vt 0.625000 1.000000
vt 0.270833 0.645833
vt 0.375000 0.750000
vt 0.550000 1.000000
vt 0.550000 0.750000
vt 0.625000 1.000000
vt 0.550000 0.250000
vt 0.550000 0.000000
vt 0.625000 0.000000
vt 0.625000 0.250000
vt 0.479167 0.645833
vt 0.375000 0.750000
vt 0.550000 0.500000
vt 0.479167 0.145833
vt 0.375000 0.250000
vt 0.550000 1.000000
vt 0.550000 0.750000
vt 0.625000 1.000000
vt 0.520833 0.395833
vt 0.625000 0.500000
vt 0.550000 0.250000
vt 0.550000 0.000000
vt 0.625000 0.000000
vt 0.625000 0.250000
vt 0.770833 0.645833
vt 0.875000 0.750000
vt 0.550000 0.500000
vn -1.0000 0.0000 0.0000
vn 0.0000 1.0000 0.0000
vn 0.0000 0.0000 1.0000
vn 0.0000 -1.0000 0.0000
vn 1.0000 0.0000 0.0000
vn 0.0000 0.0000 -1.0000
vn 0.0000 0.9829 -0.1843
vn 0.9829 0.0000 -0.1843
vn 0.0000 -0.9829 -0.1843
vn -0.9829 0.0000 -0.1843
usemtl None
s off
f 2/1/1 5/2/1 4/3/1 1/4/1
f 1/5/2 60/6/2 62/7/2 2/8/2
f 4/3/3 58/9/3 60/10/3 1/11/3
f 5/2/4 64/12/4 58/9/4 4/3/4
f 7/13/5 8/14/5 3/15/5 6/16/5
f 2/8/6 62/7/6 64/12/6 5/2/6
f 10/17/4 13/18/4 12/19/4 9/20/4
f 9/21/1 52/22/1 54/23/1 10/24/1
f 12/19/3 51/25/3 52/26/3 9/27/3
f 13/18/5 56/28/5 51/25/5 12/19/5
f 15/29/2 16/30/2 11/31/2 14/32/2
f 10/24/6 54/23/6 56/28/6 13/18/6
f 18/33/4 28/34/4 43/35/4 47/36/4
f 17/37/1 19/38/1 49/39/1 46/40/1
f 19/38/1 17/37/1 21/41/1 22/42/1
f 17/43/4 20/44/4 23/45/4 21/46/4
f 23/45/3 24/47/3 22/48/3 21/49/3
f 20/44/5 25/50/5 24/47/5 23/45/5
f 25/50/2 19/51/2 22/52/2 24/47/2
f 26/53/2 27/54/2 48/55/2 45/56/2
f 28/34/5 26/53/5 45/56/5 43/35/5
f 27/54/3 26/53/3 29/57/3 30/58/3
f 26/53/3 28/34/3 31/59/3 29/57/3
f 30/58/7 29/57/7 32/60/7
f 29/57/8 31/59/8 32/61/8
f 31/59/9 33/62/9 32/63/9
f 33/64/10 30/65/10 32/66/10
f 18/67/3 27/68/3 30/65/3 33/64/3
f 28/34/3 18/33/3 33/62/3 31/59/3
f 34/69/2 38/70/2 40/71/2 53/72/2 55/73/2 57/74/2
f 35/75/5 34/76/5 63/77/5 65/78/5 59/79/5 37/80/5
f 39/81/4 35/82/4 37/83/4 51/84/4 56/85/4 54/86/4
f 37/87/3 36/88/3 44/89/3 42/90/3 46/91/3 41/92/3
f 39/93/6 38/94/6 48/95/6 47/96/6 43/97/6 35/98/6
f 41/99/1 40/100/1 60/101/1 58/102/1 64/103/1 39/104/1
f 47/105/1 48/106/1 27/68/1 18/67/1
f 44/107/2 49/108/2 19/51/2 25/50/2
f 46/109/4 42/110/4 20/44/4 17/43/4
f 41/92/3 46/91/3 49/111/3 44/89/3 36/88/3 40/112/3
f 42/110/5 44/107/5 25/50/5 20/44/5
f 35/98/6 43/97/6 45/113/6 48/95/6 38/94/6 34/114/6
f 53/115/3 50/116/3 14/32/3 11/117/3
f 55/118/1 53/119/1 11/120/1 16/121/1
f 54/86/4 52/122/4 51/84/4 37/83/4 41/123/4 39/81/4
f 57/124/6 55/118/6 16/121/6 15/29/6
f 50/116/5 57/124/5 15/29/5 14/32/5
f 57/74/2 50/125/2 53/72/2 40/71/2 36/126/2 34/69/2
f 61/127/3 59/128/3 6/16/3 3/129/3
f 37/80/5 59/79/5 61/130/5 63/77/5 34/76/5 36/131/5
f 63/132/2 61/133/2 3/134/2 8/135/2
f 39/104/1 64/103/1 62/136/1 60/101/1 40/100/1 38/137/1
f 65/138/6 63/132/6 8/135/6 7/13/6
f 59/128/4 65/138/4 7/13/4 6/16/4
o Cube.001_Cube.002
v -0.062500 -0.062500 1.000000
v -0.062500 -0.062500 -1.000000
v -0.062500 0.062500 1.000000
v 0.062500 -0.062500 1.000000
v -0.062500 -0.062500 1.250000
v -0.062500 0.062500 1.250000
v 0.062500 -0.062500 1.250000
v 0.062500 0.062500 1.250000
v 0.062500 0.062500 1.000000
v 0.062500 0.062500 -1.000000
v -0.062500 0.062500 -1.000000
v 0.062500 -0.062500 -1.000000
v 0.093750 0.093750 -1.000000
v -0.093750 0.093750 -1.000000
v 0.093750 -0.093750 -1.000000
v 0.000000 0.000000 -1.500000
v -0.093750 -0.093750 -1.000000
vt 0.125000 0.500000
vt 0.375000 0.500000
vt 0.375000 0.750000
vt 0.125000 0.750000
vt 0.375000 0.000000
vt 0.625000 0.000000
vt 0.625000 0.250000
vt 0.375000 0.250000
vt 0.375000 0.000000
vt 0.625000 0.000000
vt 0.375000 0.750000
vt 0.125000 0.750000
vt 0.625000 0.750000
vt 0.625000 1.000000
vt 0.375000 1.000000
vt 0.625000 0.750000
vt 0.875000 0.750000
vt 0.875000 0.750000
vt 0.625000 0.500000
vt 0.875000 0.500000
vt 0.625000 0.500000
vt 0.875000 0.500000
vt 0.375000 0.500000
vt 0.875000 0.500000
vt 0.625000 0.500000
vt 0.125000 0.500000
vt 0.375000 0.500000
vt 0.375000 0.250000
vt 0.625000 0.250000
vt 0.375000 0.250000
vn 0.0000 -1.0000 0.0000
vn -1.0000 0.0000 0.0000
vn 0.0000 0.0000 1.0000
vn 1.0000 0.0000 0.0000
vn 0.0000 1.0000 0.0000
vn 0.0000 0.9829 -0.1843
vn 0.9829 0.0000 -0.1843
vn 0.0000 -0.9829 -0.1843
vn -0.9829 0.0000 -0.1843
usemtl None
s off
f 67/139/11 77/140/11 69/141/11 66/142/11
f 66/143/12 68/144/12 76/145/12 67/146/12
f 68/144/12 66/143/12 70/147/12 71/148/12
f 66/142/11 69/141/11 72/149/11 70/150/11
f 72/149/13 73/151/13 71/152/13 70/153/13
f 69/141/14 74/154/14 73/151/14 72/149/14
f 74/154/15 68/155/15 71/156/15 73/151/15
f 75/157/15 76/158/15 68/155/15 74/154/15
f 77/140/14 75/157/14 74/154/14 69/141/14
f 76/158/13 75/157/13 78/159/13 79/160/13
f 75/157/13 77/140/13 80/161/13 78/159/13
f 79/160/16 78/159/16 81/162/16
f 78/159/17 80/161/17 81/163/17
f 80/161/18 82/164/18 81/165/18
f 82/166/19 79/167/19 81/168/19
f 67/146/13 76/145/13 79/167/13 82/166/13
f 77/140/13 67/139/13 82/164/13 80/161/13
o Cube.002_Cube.003
v -0.062500 -0.937500 0.062500
v -0.062500 -0.937500 -0.062500
v -0.062500 0.937500 0.062500
v 0.062500 -0.937500 0.062500
v 0.062500 -0.937500 -0.062500
v 0.062500 0.937500 0.062500
v 0.062500 0.937500 -0.062500
v -0.062500 0.937500 -0.062500
vt 0.125000 0.500000
vt 0.375000 0.500000
vt 0.375000 0.750000
vt 0.125000 0.750000
vt 0.375000 0.000000
vt 0.625000 0.000000
vt 0.625000 0.250000
vt 0.375000 0.250000
vt 0.625000 0.750000
vt 0.625000 1.000000
vt 0.375000 1.000000
vt 0.625000 0.500000
vt 0.875000 0.500000
vt 0.875000 0.750000
vn 0.0000 -1.0000 0.0000
vn -1.0000 0.0000 0.0000
vn 0.0000 0.0000 1.0000
vn 1.0000 0.0000 0.0000
vn 0.0000 1.0000 0.0000
vn 0.0000 0.0000 -1.0000
usemtl None
s off
f 84/169/20 87/170/20 86/171/20 83/172/20
f 83/173/21 85/174/21 90/175/21 84/176/21
f 86/171/22 88/177/22 85/178/22 83/179/22
f 87/170/23 89/180/23 88/177/23 86/171/23
f 89/180/24 90/181/24 85/182/24 88/177/24
f 84/176/25 90/175/25 89/180/25 87/170/25
o Cube.003_Cube.004
v -0.937500 0.062500 0.062500
v -0.937500 0.062500 -0.062500
v 0.937500 0.062500 0.062500
v -0.937500 -0.062500 0.062500
v -0.937500 -0.062500 -0.062500
v 0.937500 -0.062500 0.062500
v 0.937500 -0.062500 -0.062500
v 0.937500 0.062500 -0.062500
vt 0.125000 0.500000
vt 0.375000 0.500000
vt 0.375000 0.750000
vt 0.125000 0.750000
vt 0.375000 0.000000
vt 0.625000 0.000000
vt 0.625000 0.250000
vt 0.375000 0.250000
vt 0.625000 0.750000
vt 0.625000 1.000000
vt 0.375000 1.000000
vt 0.625000 0.500000
vt 0.875000 0.500000
vt 0.875000 0.750000
vn -1.0000 0.0000 0.0000
vn 0.0000 1.0000 0.0000
vn 0.0000 0.0000 1.0000
vn 0.0000 -1.0000 0.0000
vn 1.0000 0.0000 0.0000
vn 0.0000 0.0000 -1.0000
usemtl None
s off
f 92/183/26 95/184/26 94/185/26 91/186/26
f 91/187/27 93/188/27 98/189/27 92/190/27
f 94/185/28 96/191/28 93/192/28 91/193/28
f 95/184/29 97/194/29 96/191/29 94/185/29
f 97/194/30 98/195/30 93/196/30 96/191/30
f 92/190/31 98/189/31 97/194/31 95/184/31
